<svg width="24" height="24" viewBox="0 0 24 24" fill="none" xmlns="http://www.w3.org/2000/svg">
<path d="M22.8 11.4V16.8C22.8 17.1183 22.6735 17.4235 22.4485 17.6485C22.2234 17.8736 21.9182 18 21.6 18H19.8M22.8 11.4H14.4M22.8 11.4L20.7168 6.71281C20.6225 6.50062 20.4687 6.32034 20.274 6.19382C20.0793 6.0673 19.8521 5.99998 19.62 6.00001H14.4M19.8 18C19.8 18.6365 19.5471 19.247 19.097 19.6971C18.6469 20.1471 18.0365 20.4 17.4 20.4C16.7634 20.4 16.153 20.1471 15.7029 19.6971C15.2528 19.247 15 18.6365 15 18M19.8 18C19.8 17.3635 19.5471 16.753 19.097 16.3029C18.6469 15.8529 18.0365 15.6 17.4 15.6C16.7634 15.6 16.153 15.8529 15.7029 16.3029C15.2528 16.753 15 17.3635 15 18M14.4 11.4V18M14.4 11.4V6.00001M14.4 6.00001V4.80001C14.4 4.48175 14.2735 4.17652 14.0485 3.95148C13.8234 3.72643 13.5182 3.60001 13.2 3.60001H2.39995C2.08169 3.60001 1.77647 3.72643 1.55142 3.95148C1.32638 4.17652 1.19995 4.48175 1.19995 4.80001V16.8C1.19995 17.1183 1.32638 17.4235 1.55142 17.6485C1.77647 17.8736 2.08169 18 2.39995 18H4.19995M4.19995 18C4.19995 18.6365 4.45281 19.247 4.90289 19.6971C5.35298 20.1471 5.96343 20.4 6.59995 20.4C7.23647 20.4 7.84692 20.1471 8.29701 19.6971C8.74709 19.247 8.99995 18.6365 8.99995 18M4.19995 18C4.19995 17.3635 4.45281 16.753 4.90289 16.3029C5.35298 15.8529 5.96343 15.6 6.59995 15.6C7.23647 15.6 7.84692 15.8529 8.29701 16.3029C8.74709 16.753 8.99995 17.3635 8.99995 18M8.99995 18H14.4M14.4 18H15" stroke="#FE470D" stroke-width="2" stroke-linecap="round" stroke-linejoin="round"/>
</svg>
