<svg width="16" height="17" viewBox="0 0 16 17" fill="none" xmlns="http://www.w3.org/2000/svg">
<path fill-rule="evenodd" clip-rule="evenodd" d="M11.5219 0.5C13.9952 0.5 16 2.5064 16 4.97808V12.0219C16 14.4952 13.9936 16.5 11.5219 16.5H4.47808C2.0048 16.5 0 14.4936 0 12.0219V4.97808C0 2.5048 2.0064 0.5 4.47808 0.5H11.5219ZM8 4.34C5.7024 4.34 3.84 6.2024 3.84 8.5C3.84 10.7976 5.7024 12.66 8 12.66C10.2976 12.66 12.16 10.7976 12.16 8.5C12.16 6.2024 10.2976 4.34 8 4.34ZM8 5.62C8.37821 5.62 8.75271 5.69449 9.10213 5.83923C9.45155 5.98396 9.76903 6.1961 10.0365 6.46353C10.3039 6.73097 10.516 7.04845 10.6608 7.39787C10.8055 7.74729 10.88 8.12179 10.88 8.5C10.88 8.87821 10.8055 9.25271 10.6608 9.60213C10.516 9.95155 10.3039 10.269 10.0365 10.5365C9.76903 10.8039 9.45155 11.016 9.10213 11.1608C8.75271 11.3055 8.37821 11.38 8 11.38C7.23618 11.38 6.50364 11.0766 5.96353 10.5365C5.42343 9.99636 5.12 9.26382 5.12 8.5C5.12 7.73618 5.42343 7.00364 5.96353 6.46353C6.50364 5.92343 7.23618 5.62 8 5.62ZM12.64 2.74C12.343 2.74 12.0581 2.858 11.848 3.06804C11.638 3.27808 11.52 3.56296 11.52 3.86C11.52 4.15704 11.638 4.44192 11.848 4.65196C12.0581 4.862 12.343 4.98 12.64 4.98C12.937 4.98 13.2219 4.862 13.432 4.65196C13.642 4.44192 13.76 4.15704 13.76 3.86C13.76 3.56296 13.642 3.27808 13.432 3.06804C13.2219 2.858 12.937 2.74 12.64 2.74Z" fill="white"/>
</svg>
