<svg width="24" height="24" viewBox="0 0 24 24" fill="none" xmlns="http://www.w3.org/2000/svg">
<path d="M19.6363 17.4545H21.8181C22.4726 17.4545 22.909 17.0182 22.909 16.3636V13.0909C22.909 12.1091 22.1454 11.2364 21.2726 11.0182C19.309 10.4727 16.3635 9.81818 16.3635 9.81818C16.3635 9.81818 14.9454 8.29091 13.9635 7.30909C13.4181 6.87273 12.7635 6.54546 11.9999 6.54546H4.36355C3.709 6.54546 3.16355 6.98182 2.83627 7.52727L1.309 10.6909C1.16454 11.1122 1.09082 11.5546 1.09082 12V16.3636C1.09082 17.0182 1.52718 17.4545 2.18173 17.4545H4.36355" stroke="#FE470D" stroke-width="2" stroke-linecap="round" stroke-linejoin="round"/>
<path d="M6.54534 19.6364C7.75033 19.6364 8.72716 18.6595 8.72716 17.4546C8.72716 16.2496 7.75033 15.2727 6.54534 15.2727C5.34036 15.2727 4.36353 16.2496 4.36353 17.4546C4.36353 18.6595 5.34036 19.6364 6.54534 19.6364Z" stroke="#FE470D" stroke-width="2" stroke-linecap="round" stroke-linejoin="round"/>
<path d="M8.72729 17.4545H15.2727" stroke="#FE470D" stroke-width="2" stroke-linecap="round" stroke-linejoin="round"/>
<path d="M17.4545 19.6364C18.6595 19.6364 19.6363 18.6595 19.6363 17.4546C19.6363 16.2496 18.6595 15.2727 17.4545 15.2727C16.2495 15.2727 15.2727 16.2496 15.2727 17.4546C15.2727 18.6595 16.2495 19.6364 17.4545 19.6364Z" stroke="#FE470D" stroke-width="2" stroke-linecap="round" stroke-linejoin="round"/>
</svg>
